# xmcd
#
# Track frame offsets:
#	150
#	17930
#	29696
#	46581
#	61481
#	78623
#	92365
#	105729
#	118629
#	134266
#
# Disc length: 2019 seconds
#
# Revision: 1
# Processed by: cddbd v1.5.2PL0 Copyright (c) Steve Scherf et al.
# Submitted via: audiograbber 1.83.01
#
DISCID=7e07e10a
DTITLE=Hanging Tree 002 - Hanging Tree 002
DYEAR=2007
DGENRE=Country
TTITLE0=Judas Before Jesu - Jim Fullen
TTITLE1=I´m Gonna Boogie Tonight  - Billy Crain
TTITLE2=Dear Hank  - Kimberly Marrs
TTITLE3=Old Drunken Paco  - Mike Haduck
TTITLE4=Min Nabo Har Lige Klippet Min Hæk  - Klavs Andreassen
TTITLE5=Well Of Loneliness  - Jerry Hanlon
TTITLE6=High And Lonesom - Manon´s Dream
TTITLE7=Charlie´s Shoes  - Dean Holmen
TTITLE8=My Brand New Theremin - Randall Cousins
TTITLE9=Here With U 2 Night - Shelley Buffitt
EXTD=
EXTT0=
EXTT1=
EXTT2=
EXTT3=
EXTT4=
EXTT5=
EXTT6=
EXTT7=
EXTT8=
EXTT9=
PLAYORDER=
